<?xml version="1.0" encoding="us-ascii" standalone="no"?><svg xmlns="http://www.w3.org/2000/svg" xmlns:xlink="http://www.w3.org/1999/xlink" contentStyleType="text/css" height="2729px" preserveAspectRatio="none" style="width:1916px;height:2729px;background:#FFFFFF;" version="1.1" viewBox="0 0 1916 2729" width="1916px" zoomAndPan="magnify"><defs/><g><!--cluster HIV Clinic Management System--><g id="cluster_HIV Clinic Management System"><rect fill="none" height="1502" rx="2.5" ry="2.5" style="stroke:#181818;stroke-width:1.0;" width="1579" x="331" y="326.36"/><text fill="#000000" font-family="sans-serif" font-size="14" font-weight="bold" lengthAdjust="spacing" textLength="242" x="999.5" y="341.3551">HIV Clinic Management System</text></g><!--cluster Public Access--><g id="cluster_Public Access"><rect fill="none" height="265" rx="2.5" ry="2.5" style="stroke:#181818;stroke-width:1.0;" width="282" x="393.5" y="369.36"/><text fill="#000000" font-family="sans-serif" font-size="14" font-weight="bold" lengthAdjust="spacing" textLength="109" x="480" y="384.3551">Public Access</text></g><!--cluster Common Authenticated Features--><g id="cluster_Common Authenticated Features"><rect fill="none" height="172" rx="2.5" ry="2.5" style="stroke:#181818;stroke-width:1.0;" width="653" x="421.5" y="1315.36"/><text fill="#000000" font-family="sans-serif" font-size="14" font-weight="bold" lengthAdjust="spacing" textLength="260" x="618" y="1330.3551">Common Authenticated Features</text></g><!--cluster Patient Services--><g id="cluster_Patient Services"><rect fill="none" height="293" rx="2.5" ry="2.5" style="stroke:#181818;stroke-width:1.0;" width="738" x="355" y="1511.36"/><text fill="#000000" font-family="sans-serif" font-size="14" font-weight="bold" lengthAdjust="spacing" textLength="128" x="660" y="1526.3551">Patient Services</text></g><!--cluster Doctor Services--><g id="cluster_Doctor Services"><rect fill="none" height="479" rx="2.5" ry="2.5" style="stroke:#181818;stroke-width:1.0;" width="698" x="1188" y="1325.36"/><text fill="#000000" font-family="sans-serif" font-size="14" font-weight="bold" lengthAdjust="spacing" textLength="126" x="1474" y="1340.3551">Doctor Services</text></g><!--cluster Admin Services--><g id="cluster_Admin Services"><rect fill="none" height="186" rx="2.5" ry="2.5" style="stroke:#181818;stroke-width:1.0;" width="679" x="806.5" y="369.36"/><text fill="#000000" font-family="sans-serif" font-size="14" font-weight="bold" lengthAdjust="spacing" textLength="122" x="1085" y="384.3551">Admin Services</text></g><!--cluster Manager Services--><g id="cluster_Manager Services"><rect fill="none" height="633" rx="2.5" ry="2.5" style="stroke:#181818;stroke-width:1.0;" width="300" x="384.5" y="658.36"/><text fill="#000000" font-family="sans-serif" font-size="14" font-weight="bold" lengthAdjust="spacing" textLength="141" x="464" y="673.3551">Manager Services</text></g><g id="elem_UC_001"><ellipse cx="534.5038" cy="432.2608" fill="#F3E5F5" rx="125.0038" ry="27.4008" style="stroke:#4A148C;stroke-width:0.5;"/><text fill="#000000" font-family="sans-serif" font-size="14" lengthAdjust="spacing" textLength="218" x="425.5038" y="435.1074">UC-001: Browse Public Website</text></g><g id="elem_UC_002"><ellipse cx="534.2877" cy="519.2175" fill="#F3E5F5" rx="107.2877" ry="23.8575" style="stroke:#4A148C;stroke-width:0.5;"/><text fill="#000000" font-family="sans-serif" font-size="14" lengthAdjust="spacing" textLength="180" x="444.2877" y="522.0642">UC-002: User Registration</text></g><g id="elem_UC_003"><ellipse cx="534.5998" cy="598.58" fill="#F3E5F5" rx="86.5998" ry="19.72" style="stroke:#4A148C;stroke-width:0.5;"/><text fill="#000000" font-family="sans-serif" font-size="14" lengthAdjust="spacing" textLength="134" x="467.5998" y="601.4266">UC-003: User Login</text></g><g id="elem_UC_004"><ellipse cx="534.4431" cy="1371.5486" fill="#F3E5F5" rx="91.4431" ry="20.6886" style="stroke:#4A148C;stroke-width:0.5;"/><text fill="#000000" font-family="sans-serif" font-size="14" lengthAdjust="spacing" textLength="145" x="461.9431" y="1374.3953">UC-004: User Logout</text></g><g id="elem_UC_005"><ellipse cx="534.3093" cy="1449.1219" fill="#F3E5F5" rx="96.8093" ry="21.7619" style="stroke:#4A148C;stroke-width:0.5;"/><text fill="#000000" font-family="sans-serif" font-size="14" lengthAdjust="spacing" textLength="157" x="455.8093" y="1451.9685">UC-005: Update Profile</text></g><g id="elem_UC_006"><ellipse cx="948.5557" cy="1436.2711" fill="#F3E5F5" rx="110.0557" ry="24.4111" style="stroke:#4A148C;stroke-width:0.5;"/><text fill="#000000" font-family="sans-serif" font-size="14" lengthAdjust="spacing" textLength="186" x="855.5557" y="1439.1178">UC-006: Change Password</text></g><g id="elem_UC_007"><ellipse cx="948.3083" cy="1621.4217" fill="#F3E5F5" rx="128.3083" ry="28.0617" style="stroke:#4A148C;stroke-width:0.5;"/><text fill="#000000" font-family="sans-serif" font-size="14" lengthAdjust="spacing" textLength="225" x="835.8083" y="1624.2683">UC-007: View Patient Dashboard</text></g><g id="elem_UC_008"><ellipse cx="948.5326" cy="1712.1665" fill="#F3E5F5" rx="124.5326" ry="27.3065" style="stroke:#4A148C;stroke-width:0.5;"/><text fill="#000000" font-family="sans-serif" font-size="14" lengthAdjust="spacing" textLength="217" x="840.0326" y="1715.0132">UC-008: Manage Appointments</text></g><g id="elem_UC_009"><ellipse cx="534.2652" cy="1581.413" fill="#F3E5F5" rx="163.2652" ry="35.053" style="stroke:#4A148C;stroke-width:0.5;"/><text fill="#000000" font-family="sans-serif" font-size="14" lengthAdjust="spacing" textLength="298" x="385.2652" y="1584.2597">UC-009: Manage Personal Medical Records</text></g><g id="elem_UC_010"><ellipse cx="534.2717" cy="1678.4143" fill="#F3E5F5" rx="120.7717" ry="26.5543" style="stroke:#4A148C;stroke-width:0.5;"/><text fill="#000000" font-family="sans-serif" font-size="14" lengthAdjust="spacing" textLength="209" x="429.7717" y="1681.261">UC-010: View ARV Treatments</text></g><g id="elem_UC_011"><ellipse cx="534.7482" cy="1764.3096" fill="#F3E5F5" rx="107.7482" ry="23.9496" style="stroke:#4A148C;stroke-width:0.5;"/><text fill="#000000" font-family="sans-serif" font-size="14" lengthAdjust="spacing" textLength="181" x="444.2482" y="1767.1563">UC-011: View Notifications</text></g><g id="elem_UC_012"><ellipse cx="1346.8356" cy="1570.3271" fill="#F3E5F5" rx="127.8356" ry="27.9671" style="stroke:#4A148C;stroke-width:0.5;"/><text fill="#000000" font-family="sans-serif" font-size="14" lengthAdjust="spacing" textLength="224" x="1234.8356" y="1573.1738">UC-012: View Doctor Dashboard</text></g><g id="elem_UC_013"><ellipse cx="1347.0326" cy="1388.1665" fill="#F3E5F5" rx="124.5326" ry="27.3065" style="stroke:#4A148C;stroke-width:0.5;"/><text fill="#000000" font-family="sans-serif" font-size="14" lengthAdjust="spacing" textLength="217" x="1238.5326" y="1391.0132">UC-013: Manage Appointments</text></g><g id="elem_UC_014"><ellipse cx="1346.7813" cy="1479.5163" fill="#F3E5F5" rx="128.7813" ry="28.1563" style="stroke:#4A148C;stroke-width:0.5;"/><text fill="#000000" font-family="sans-serif" font-size="14" lengthAdjust="spacing" textLength="226" x="1233.7813" y="1482.3629">UC-014: Manage Availability Slots</text></g><g id="elem_UC_015"><ellipse cx="1741.3083" cy="1662.4217" fill="#F3E5F5" rx="128.3083" ry="28.0617" style="stroke:#4A148C;stroke-width:0.5;"/><text fill="#000000" font-family="sans-serif" font-size="14" lengthAdjust="spacing" textLength="225" x="1628.8083" y="1665.2683">UC-015: Access Patient Records</text></g><g id="elem_UC_016"><ellipse cx="1347.1232" cy="1662.5846" fill="#F3E5F5" rx="131.6232" ry="28.7246" style="stroke:#4A148C;stroke-width:0.5;"/><text fill="#000000" font-family="sans-serif" font-size="14" lengthAdjust="spacing" textLength="232" x="1231.1232" y="1665.4313">UC-016: Manage ARV Treatments</text></g><g id="elem_UC_017"><ellipse cx="1347.0569" cy="1757.3714" fill="#F3E5F5" rx="143.0569" ry="31.0114" style="stroke:#4A148C;stroke-width:0.5;"/><text fill="#000000" font-family="sans-serif" font-size="14" lengthAdjust="spacing" textLength="256" x="1219.0569" y="1760.2181">UC-017: Manage Patient Notifications</text></g><g id="elem_UC_018"><ellipse cx="948.4468" cy="432.4494" fill="#F3E5F5" rx="125.9468" ry="27.5894" style="stroke:#4A148C;stroke-width:0.5;"/><text fill="#000000" font-family="sans-serif" font-size="14" lengthAdjust="spacing" textLength="220" x="838.4468" y="435.296">UC-018: View Admin Dashboard</text></g><g id="elem_UC_019"><ellipse cx="948.6626" cy="517.3925" fill="#F3E5F5" rx="98.1626" ry="22.0325" style="stroke:#4A148C;stroke-width:0.5;"/><text fill="#000000" font-family="sans-serif" font-size="14" lengthAdjust="spacing" textLength="160" x="868.6626" y="520.2392">UC-019: Manage Users</text></g><g id="elem_UC_020"><ellipse cx="1347.1502" cy="450.29" fill="#F3E5F5" rx="122.6502" ry="26.93" style="stroke:#4A148C;stroke-width:0.5;"/><text fill="#000000" font-family="sans-serif" font-size="14" lengthAdjust="spacing" textLength="213" x="1240.6502" y="453.1367">UC-020: View All Appointments</text></g><g id="elem_UC_021"><ellipse cx="534.4969" cy="1246.5594" fill="#F3E5F5" rx="133.9969" ry="29.1994" style="stroke:#4A148C;stroke-width:0.5;"/><text fill="#000000" font-family="sans-serif" font-size="14" lengthAdjust="spacing" textLength="237" x="415.9969" y="1249.4061">UC-021: View Manager Dashboard</text></g><g id="elem_UC_022"><ellipse cx="534.711" cy="715.3022" fill="#F3E5F5" rx="97.711" ry="21.9422" style="stroke:#4A148C;stroke-width:0.5;"/><text fill="#000000" font-family="sans-serif" font-size="14" lengthAdjust="spacing" textLength="159" x="455.211" y="718.1489">UC-022: View Statistics</text></g><g id="elem_UC_023"><ellipse cx="534.6751" cy="801.395" fill="#F3E5F5" rx="130.6751" ry="28.535" style="stroke:#4A148C;stroke-width:0.5;"/><text fill="#000000" font-family="sans-serif" font-size="14" lengthAdjust="spacing" textLength="230" x="419.6751" y="804.2417">UC-023: Manage Patient Records</text></g><g id="elem_UC_024"><ellipse cx="534.7013" cy="893.3003" fill="#F3E5F5" rx="130.2013" ry="28.4403" style="stroke:#4A148C;stroke-width:0.5;"/><text fill="#000000" font-family="sans-serif" font-size="14" lengthAdjust="spacing" textLength="229" x="420.2013" y="896.1469">UC-024: Manage Doctor Records</text></g><g id="elem_UC_025"><ellipse cx="534.6232" cy="985.5846" fill="#F3E5F5" rx="131.6232" ry="28.7246" style="stroke:#4A148C;stroke-width:0.5;"/><text fill="#000000" font-family="sans-serif" font-size="14" lengthAdjust="spacing" textLength="232" x="418.6232" y="988.4313">UC-025: Manage ARV Treatments</text></g><g id="elem_UC_026"><ellipse cx="534.3004" cy="1074.4201" fill="#F3E5F5" rx="113.3004" ry="25.0601" style="stroke:#4A148C;stroke-width:0.5;"/><text fill="#000000" font-family="sans-serif" font-size="14" lengthAdjust="spacing" textLength="193" x="437.8004" y="1077.2668">UC-026: Manage Schedules</text></g><g id="elem_UC_027"><ellipse cx="534.6701" cy="1158.494" fill="#F3E5F5" rx="108.6701" ry="24.134" style="stroke:#4A148C;stroke-width:0.5;"/><text fill="#000000" font-family="sans-serif" font-size="14" lengthAdjust="spacing" textLength="183" x="443.1701" y="1161.3407">UC-027: Export Data (CSV)</text></g><!--entity Guest--><g id="elem_Guest"><ellipse cx="534.5" cy="1951.36" fill="#E1F5FE" rx="16" ry="16" style="stroke:#01579B;stroke-width:0.5;"/><path d="M534.5,1971.36 C538.5,1971.36 541.5,1971.36 545.5,1967.36 C553.5,1967.36 561.5,1975.36 561.5,1983.36 L561.5,1987.36 C561.5,1991.36 557.5,1995.36 553.5,1995.36 L515.5,1995.36 C511.5,1995.36 507.5,1991.36 507.5,1987.36 L507.5,1983.36 C507.5,1975.36 515.5,1967.36 523.5,1967.36 C527.5,1971.36 530.5,1971.36 534.5,1971.36 " fill="#E1F5FE" style="stroke:#01579B;stroke-width:0.5;"/><text fill="#000000" font-family="sans-serif" font-size="14" lengthAdjust="spacing" textLength="151" x="459" y="2008.8551">Unauthenticated User</text></g><!--entity Patient--><g id="elem_Patient"><ellipse cx="145" cy="1742.36" fill="#E1F5FE" rx="16" ry="16" style="stroke:#01579B;stroke-width:0.5;"/><path d="M145,1762.36 C149,1762.36 152,1762.36 156,1758.36 C164,1758.36 172,1766.36 172,1774.36 L172,1778.36 C172,1782.36 168,1786.36 164,1786.36 L126,1786.36 C122,1786.36 118,1782.36 118,1778.36 L118,1774.36 C118,1766.36 126,1758.36 134,1758.36 C138,1762.36 141,1762.36 145,1762.36 " fill="#E1F5FE" style="stroke:#01579B;stroke-width:0.5;"/><text fill="#000000" font-family="sans-serif" font-size="14" lengthAdjust="spacing" textLength="48" x="121" y="1799.8551">Patient</text></g><!--entity Doctor--><g id="elem_Doctor"><ellipse cx="145" cy="2362.36" fill="#E1F5FE" rx="16" ry="16" style="stroke:#01579B;stroke-width:0.5;"/><path d="M145,2382.36 C149,2382.36 152,2382.36 156,2378.36 C164,2378.36 172,2386.36 172,2394.36 L172,2398.36 C172,2402.36 168,2406.36 164,2406.36 L126,2406.36 C122,2406.36 118,2402.36 118,2398.36 L118,2394.36 C118,2386.36 126,2378.36 134,2378.36 C138,2382.36 141,2382.36 145,2382.36 " fill="#E1F5FE" style="stroke:#01579B;stroke-width:0.5;"/><text fill="#000000" font-family="sans-serif" font-size="14" lengthAdjust="spacing" textLength="47" x="121.5" y="2419.8551">Doctor</text></g><!--entity Admin--><g id="elem_Admin"><ellipse cx="145" cy="242.36" fill="#E1F5FE" rx="16" ry="16" style="stroke:#01579B;stroke-width:0.5;"/><path d="M145,262.36 C149,262.36 152,262.36 156,258.36 C164,258.36 172,266.36 172,274.36 L172,278.36 C172,282.36 168,286.36 164,286.36 L126,286.36 C122,286.36 118,282.36 118,278.36 L118,274.36 C118,266.36 126,258.36 134,258.36 C138,262.36 141,262.36 145,262.36 " fill="#E1F5FE" style="stroke:#01579B;stroke-width:0.5;"/><text fill="#000000" font-family="sans-serif" font-size="14" lengthAdjust="spacing" textLength="43" x="123.5" y="299.8551">Admin</text></g><!--entity Manager--><g id="elem_Manager"><ellipse cx="145" cy="1052.36" fill="#E1F5FE" rx="16" ry="16" style="stroke:#01579B;stroke-width:0.5;"/><path d="M145,1072.36 C149,1072.36 152,1072.36 156,1068.36 C164,1068.36 172,1076.36 172,1084.36 L172,1088.36 C172,1092.36 168,1096.36 164,1096.36 L126,1096.36 C122,1096.36 118,1092.36 118,1088.36 L118,1084.36 C118,1076.36 126,1068.36 134,1068.36 C138,1072.36 141,1072.36 145,1072.36 " fill="#E1F5FE" style="stroke:#01579B;stroke-width:0.5;"/><text fill="#000000" font-family="sans-serif" font-size="14" lengthAdjust="spacing" textLength="60" x="115" y="1109.8551">Manager</text></g><g id="elem_GMN93"><path d="M371,1844.86 L371,1900.2584 A0,0 0 0 0 371,1900.2584 L530.5,1900.2584 L534.5,1934.69 L538.5,1900.2584 L698,1900.2584 A0,0 0 0 0 698,1900.2584 L698,1854.86 L688,1844.86 L371,1844.86 A0,0 0 0 0 371,1844.86 " fill="#FFF9C4" style="stroke:#F57F17;stroke-width:0.5;"/><path d="M688,1844.86 L688,1854.86 L698,1854.86 L688,1844.86 " fill="#FFF9C4" style="stroke:#F57F17;stroke-width:0.5;"/><text fill="#000000" font-family="sans-serif" font-size="13" lengthAdjust="spacing" textLength="220" x="377" y="1861.9269">Base actor - can register and login</text><text fill="#000000" font-family="sans-serif" font-size="13" lengthAdjust="spacing" textLength="218" x="377" y="1877.0597">Can browse public HIV information</text><text fill="#000000" font-family="sans-serif" font-size="13" lengthAdjust="spacing" textLength="306" x="377" y="1892.1925">All authenticated users inherit these capabilities</text></g><g id="elem_GMN96"><path d="M6,1604.36 L6,1690.0241 A0,0 0 0 0 6,1690.0241 L141,1690.0241 L145,1725.51 L149,1690.0241 L284,1690.0241 A0,0 0 0 0 284,1690.0241 L284,1614.36 L274,1604.36 L6,1604.36 A0,0 0 0 0 6,1604.36 " fill="#FFF9C4" style="stroke:#F57F17;stroke-width:0.5;"/><path d="M274,1604.36 L274,1614.36 L284,1614.36 L274,1604.36 " fill="#FFF9C4" style="stroke:#F57F17;stroke-width:0.5;"/><text fill="#000000" font-family="sans-serif" font-size="13" lengthAdjust="spacing" textLength="240" x="12" y="1621.4269">Authenticated user who receives care</text><text fill="#000000" font-family="sans-serif" font-size="13" lengthAdjust="spacing" textLength="216" x="12" y="1636.5597">Inherits all Guest capabilities plus:</text><text fill="#000000" font-family="sans-serif" font-size="13" lengthAdjust="spacing" textLength="257" x="12" y="1651.6925">- Personal dashboard and appointments</text><text fill="#000000" font-family="sans-serif" font-size="13" lengthAdjust="spacing" textLength="200" x="12" y="1666.8253">- Medical records management</text><text fill="#000000" font-family="sans-serif" font-size="13" lengthAdjust="spacing" textLength="226" x="12" y="1681.9581">- Treatment and notification access</text></g><g id="elem_GMN99"><path d="M6.5,2224.36 L6.5,2310.0241 A0,0 0 0 0 6.5,2310.0241 L141,2310.0241 L145,2345.51 L149,2310.0241 L283.5,2310.0241 A0,0 0 0 0 283.5,2310.0241 L283.5,2234.36 L273.5,2224.36 L6.5,2224.36 A0,0 0 0 0 6.5,2224.36 " fill="#FFF9C4" style="stroke:#F57F17;stroke-width:0.5;"/><path d="M273.5,2224.36 L273.5,2234.36 L283.5,2234.36 L273.5,2224.36 " fill="#FFF9C4" style="stroke:#F57F17;stroke-width:0.5;"/><text fill="#000000" font-family="sans-serif" font-size="13" lengthAdjust="spacing" textLength="252" x="12.5" y="2241.4269">Medical professional with clinical access</text><text fill="#000000" font-family="sans-serif" font-size="13" lengthAdjust="spacing" textLength="216" x="12.5" y="2256.5597">Inherits all Guest capabilities plus:</text><text fill="#000000" font-family="sans-serif" font-size="13" lengthAdjust="spacing" textLength="158" x="12.5" y="2271.6925">- Professional dashboard</text><text fill="#000000" font-family="sans-serif" font-size="13" lengthAdjust="spacing" textLength="177" x="12.5" y="2286.8253">- Patient care management</text><text fill="#000000" font-family="sans-serif" font-size="13" lengthAdjust="spacing" textLength="256" x="12.5" y="2301.9581">- Treatment prescription and monitoring</text></g><g id="elem_GMN102"><path d="M18,104.36 L18,190.0241 A0,0 0 0 0 18,190.0241 L141,190.0241 L145,225.51 L149,190.0241 L272,190.0241 A0,0 0 0 0 272,190.0241 L272,114.36 L262,104.36 L18,104.36 A0,0 0 0 0 18,104.36 " fill="#FFF9C4" style="stroke:#F57F17;stroke-width:0.5;"/><path d="M262,104.36 L262,114.36 L272,114.36 L262,104.36 " fill="#FFF9C4" style="stroke:#F57F17;stroke-width:0.5;"/><text fill="#000000" font-family="sans-serif" font-size="13" lengthAdjust="spacing" textLength="139" x="24" y="121.4269">System administrator</text><text fill="#000000" font-family="sans-serif" font-size="13" lengthAdjust="spacing" textLength="216" x="24" y="136.5597">Inherits all Guest capabilities plus:</text><text fill="#000000" font-family="sans-serif" font-size="13" lengthAdjust="spacing" textLength="209" x="24" y="151.6925">- User and system management</text><text fill="#000000" font-family="sans-serif" font-size="13" lengthAdjust="spacing" textLength="233" x="24" y="166.8253">- Account creation and maintenance</text><text fill="#000000" font-family="sans-serif" font-size="13" lengthAdjust="spacing" textLength="196" x="24" y="181.9581">- System oversight capabilities</text></g><g id="elem_GMN105"><path d="M12,914.36 L12,1000.0241 A0,0 0 0 0 12,1000.0241 L141,1000.0241 L145,1035.51 L149,1000.0241 L278,1000.0241 A0,0 0 0 0 278,1000.0241 L278,924.36 L268,914.36 L12,914.36 A0,0 0 0 0 12,914.36 " fill="#FFF9C4" style="stroke:#F57F17;stroke-width:0.5;"/><path d="M268,914.36 L268,924.36 L278,924.36 L268,914.36 " fill="#FFF9C4" style="stroke:#F57F17;stroke-width:0.5;"/><text fill="#000000" font-family="sans-serif" font-size="13" lengthAdjust="spacing" textLength="165" x="18" y="931.4269">Operational oversight role</text><text fill="#000000" font-family="sans-serif" font-size="13" lengthAdjust="spacing" textLength="216" x="18" y="946.5597">Inherits all Guest capabilities plus:</text><text fill="#000000" font-family="sans-serif" font-size="13" lengthAdjust="spacing" textLength="156" x="18" y="961.6925">- Analytics and reporting</text><text fill="#000000" font-family="sans-serif" font-size="13" lengthAdjust="spacing" textLength="160" x="18" y="976.8253">- Data export and search</text><text fill="#000000" font-family="sans-serif" font-size="13" lengthAdjust="spacing" textLength="245" x="18" y="991.9581">- Comprehensive record management</text></g><!--link Patient to Guest--><g id="link_Patient_Guest"><path d="M172.69,1794.55 C204.96,1829.2 262.5,1885.37 323,1917.36 C365.29,1939.72 399.5323,1950.1161 441.2123,1958.4861 " fill="none" id="Patient-to-Guest" style="stroke:#4A148C;stroke-width:1.0;"/><polygon fill="none" points="458.86,1962.03,442.3936,1952.6035,440.031,1964.3686,458.86,1962.03" style="stroke:#4A148C;stroke-width:1.0;"/></g><!--link Doctor to Guest--><g id="link_Doctor_Guest"><path d="M172.62,2379.39 C202.83,2372.55 252.05,2357.6 284,2328.36 C312.01,2302.73 302.83,2284.52 323,2252.36 C379.59,2162.15 446.0485,2078.371 489.4585,2025.881 " fill="none" id="Doctor-to-Guest" style="stroke:#4A148C;stroke-width:1.0;"/><polygon fill="none" points="500.93,2012.01,484.8348,2022.0572,494.0822,2029.7048,500.93,2012.01" style="stroke:#4A148C;stroke-width:1.0;"/></g><!--link Admin to Guest--><g id="link_Admin_Guest"><path d="M156.99,303.14 C184.27,401.4 255.01,668.53 284,896.36 C287.58,924.51 305.28,1895.19 323,1917.36 C355,1957.38 394.1563,1969.2971 440.8163,1972.9971 " fill="none" id="Admin-to-Guest" style="stroke:#4A148C;stroke-width:1.0;"/><polygon fill="none" points="458.76,1974.42,441.2906,1967.0159,440.342,1978.9783,458.76,1974.42" style="stroke:#4A148C;stroke-width:1.0;"/></g><!--link Manager to Guest--><g id="link_Manager_Guest"><path d="M158.53,1113.09 C185.5,1197.92 249.44,1406.92 284,1586.36 C287.5,1604.54 310.87,1903.37 323,1917.36 C356.31,1955.8 394.793,1967.6805 440.843,1971.8405 " fill="none" id="Manager-to-Guest" style="stroke:#4A148C;stroke-width:1.0;"/><polygon fill="none" points="458.77,1973.46,441.3828,1965.8649,440.3032,1977.8162,458.77,1973.46" style="stroke:#4A148C;stroke-width:1.0;"/></g><!--link Guest to UC_001--><g id="link_Guest_UC_001"><path d="M458.82,1975.49 C401.63,1972.31 328.8,1956.55 303.5,1899.86 C287.6,1864.22 287.6,530.5 303.5,494.86 C321.7,454.07 359.4157,437.4053 403.9257,430.7653 " fill="none" id="Guest-to-UC_001" style="stroke:#4A148C;stroke-width:1.0;"/><polygon fill="#4A148C" points="409.86,429.88,400.3683,427.2517,404.9147,430.6177,401.5487,435.1641,409.86,429.88" style="stroke:#4A148C;stroke-width:1.0;"/></g><!--link Guest to UC_002--><g id="link_Guest_UC_002"><path d="M458.82,1975.49 C401.63,1972.31 328.8,1956.55 303.5,1899.86 C288.55,1866.35 288.55,612.37 303.5,578.86 C324.47,531.87 373.5132,516.8784 424.6032,513.4784 " fill="none" id="Guest-to-UC_002" style="stroke:#4A148C;stroke-width:1.0;"/><polygon fill="#4A148C" points="430.59,513.08,421.3443,509.6864,425.601,513.412,421.8755,517.6688,430.59,513.08" style="stroke:#4A148C;stroke-width:1.0;"/></g><!--link Guest to UC_003--><g id="link_Guest_UC_003"><path d="M458.82,1975.49 C401.63,1972.31 328.8,1956.55 303.5,1899.86 C289.86,1869.29 289.86,725.43 303.5,694.86 C328.69,638.4 391.2992,615.9206 447.2192,606.1706 " fill="none" id="Guest-to-UC_003" style="stroke:#4A148C;stroke-width:1.0;"/><polygon fill="#4A148C" points="453.13,605.14,443.5767,602.7453,448.2043,605.9988,444.9508,610.6264,453.13,605.14" style="stroke:#4A148C;stroke-width:1.0;"/></g><!--link Patient to UC_004--><g id="link_Patient_UC_004"><path d="M172.63,1761.32 C204.54,1756.17 257.07,1742.56 284,1707.36 C365.16,1601.27 230.3,1505.53 323,1409.36 C354.64,1376.54 398.3342,1366.6837 441.4942,1365.0737 " fill="none" id="Patient-to-UC_004" style="stroke:#4A148C;stroke-width:1.0;"/><polygon fill="#4A148C" points="447.49,1364.85,438.3471,1361.1883,442.4935,1365.0364,438.6454,1369.1827,447.49,1364.85" style="stroke:#4A148C;stroke-width:1.0;"/></g><!--link Patient to UC_005--><g id="link_Patient_UC_005"><path d="M172.67,1760.81 C204.12,1755.18 255.68,1741.12 284,1707.36 C335.77,1645.64 270.48,1591.44 323,1530.36 C355.68,1492.35 402.4681,1473.5101 446.9281,1462.7601 " fill="none" id="Patient-to-UC_005" style="stroke:#4A148C;stroke-width:1.0;"/><polygon fill="#4A148C" points="452.76,1461.35,443.072,1459.5772,447.9,1462.5251,444.9522,1467.3531,452.76,1461.35" style="stroke:#4A148C;stroke-width:1.0;"/></g><!--link Patient to UC_006--><g id="link_Patient_UC_006"><path d="M158.46,1803.07 C180.5,1864.2 232.74,1981.1 323,2029.36 C469.98,2107.94 559.63,2122.27 698,2029.36 C787.69,1969.13 767.52,1910.03 790,1804.36 C796.34,1774.57 783.38,1556.8 798.5,1530.36 C818.24,1495.84 850.8934,1474.635 883.6334,1459.665 " fill="none" id="Patient-to-UC_006" style="stroke:#4A148C;stroke-width:1.0;"/><polygon fill="#4A148C" points="889.09,1457.17,879.2417,1457.2747,884.5428,1459.2492,882.5684,1464.5503,889.09,1457.17" style="stroke:#4A148C;stroke-width:1.0;"/></g><!--link Patient to UC_007--><g id="link_Patient_UC_007"><path d="M152.53,1802.92 C166.98,1874.7 209.13,2027.34 314,2091.36 C494.57,2201.59 638.92,2239.44 790,2091.36 C806.83,2074.87 784.32,1686.18 798.5,1667.36 C809.09,1653.3 818.3918,1645.7757 834.6018,1638.8557 " fill="none" id="Patient-to-UC_007" style="stroke:#4A148C;stroke-width:1.0;"/><polygon fill="#4A148C" points="840.12,1636.5,830.2722,1636.3548,835.5215,1638.4631,833.4132,1643.7124,840.12,1636.5" style="stroke:#4A148C;stroke-width:1.0;"/></g><!--link Patient to UC_008--><g id="link_Patient_UC_008"><path d="M151.67,1802.96 C165.2,1881.39 206.65,2060.31 314,2159.36 C469.55,2302.88 617.84,2296.47 790,2173.36 C935.5,2069.31 948.0915,1828.52 948.0715,1745.87 " fill="none" id="Patient-to-UC_008" style="stroke:#4A148C;stroke-width:1.0;"/><polygon fill="#4A148C" points="948.07,1739.87,944.0722,1748.871,948.0712,1744.87,952.0722,1748.869,948.07,1739.87" style="stroke:#4A148C;stroke-width:1.0;"/></g><!--link Patient to UC_009--><g id="link_Patient_UC_009"><path d="M172.54,1759.08 C202.67,1751.91 251.82,1736.5 284,1707.36 C311.27,1682.67 294.02,1657.01 323,1634.36 C343.56,1618.29 362.6701,1608.8101 387.9701,1600.9501 " fill="none" id="Patient-to-UC_009" style="stroke:#4A148C;stroke-width:1.0;"/><polygon fill="#4A148C" points="393.7,1599.17,383.9185,1598.0203,388.9251,1600.6534,386.292,1605.6601,393.7,1599.17" style="stroke:#4A148C;stroke-width:1.0;"/></g><!--link Patient to UC_010--><g id="link_Patient_UC_010"><path d="M172.64,1757.8 C207.23,1749.34 269.52,1734.29 323,1722.36 C362.99,1713.44 401.504,1705.2936 439.174,1697.5136 " fill="none" id="Patient-to-UC_010" style="stroke:#4A148C;stroke-width:1.0;"/><polygon fill="#4A148C" points="445.05,1696.3,435.427,1694.203,440.1533,1697.3113,437.0451,1702.0377,445.05,1696.3" style="stroke:#4A148C;stroke-width:1.0;"/></g><!--link Patient to UC_011--><g id="link_Patient_UC_011"><path d="M172.63,1764.36 C224.19,1764.36 334.16,1764.36 420.81,1764.36 " fill="none" id="Patient-to-UC_011" style="stroke:#4A148C;stroke-width:1.0;"/><polygon fill="#4A148C" points="426.81,1764.36,417.81,1760.36,421.81,1764.36,417.81,1768.36,426.81,1764.36" style="stroke:#4A148C;stroke-width:1.0;"/></g><!--link Doctor to UC_004--><g id="link_Doctor_UC_004"><path d="M172.57,2381.98 C204.94,2377.52 258.45,2364.76 284,2328.36 C313.36,2286.53 289.05,1447.55 323,1409.36 C353.96,1374.53 399.1614,1364.8391 443.3114,1363.8891 " fill="none" id="Doctor-to-UC_004" style="stroke:#4A148C;stroke-width:1.0;"/><polygon fill="#4A148C" points="449.31,1363.76,440.226,1359.9545,444.3112,1363.8676,440.3981,1367.9527,449.31,1363.76" style="stroke:#4A148C;stroke-width:1.0;"/></g><!--link Doctor to UC_005--><g id="link_Doctor_UC_005"><path d="M172.51,2381.94 C204.82,2377.44 258.27,2364.63 284,2328.36 C309.68,2292.16 296.99,1566.32 323,1530.36 C352.03,1490.22 397.9193,1471.3001 442.8293,1461.0901 " fill="none" id="Doctor-to-UC_005" style="stroke:#4A148C;stroke-width:1.0;"/><polygon fill="#4A148C" points="448.68,1459.76,439.0172,1457.8547,443.8044,1460.8684,440.7907,1465.6557,448.68,1459.76" style="stroke:#4A148C;stroke-width:1.0;"/></g><!--link Doctor to UC_006--><g id="link_Doctor_UC_006"><path d="M172.59,2374.62 C200.67,2364.09 246.05,2346.39 284,2328.36 C523.49,2214.58 684.36,2255.55 790,2012.36 C800.67,1987.79 785.36,1553.7 798.5,1530.36 C818.01,1495.71 850.6694,1474.4963 883.4594,1459.5663 " fill="none" id="Doctor-to-UC_006" style="stroke:#4A148C;stroke-width:1.0;"/><polygon fill="#4A148C" points="888.92,1457.08,879.0715,1457.1691,884.3695,1459.1519,882.3867,1464.4499,888.92,1457.08" style="stroke:#4A148C;stroke-width:1.0;"/></g><!--link Doctor to UC_012--><g id="link_Doctor_UC_012"><path d="M172.53,2397.5 C204.96,2412.77 261.97,2437.06 314,2446.36 C501.7,2479.89 1036.53,2580.53 1172,2446.36 C1188.38,2430.13 1165.95,1634.64 1180,1616.36 C1192.57,1599.99 1204.7928,1591.1919 1224.1728,1584.0219 " fill="none" id="Doctor-to-UC_012" style="stroke:#4A148C;stroke-width:1.0;"/><polygon fill="#4A148C" points="1229.8,1581.94,1219.9712,1581.3114,1225.1106,1583.6749,1222.7471,1588.8143,1229.8,1581.94" style="stroke:#4A148C;stroke-width:1.0;"/></g><!--link Doctor to UC_013--><g id="link_Doctor_UC_013"><path d="M172.69,2383.61 C269.95,2380.52 604.47,2366.52 698,2318.36 C1016.52,2154.35 1081.72,2013.06 1172,1666.36 C1178.53,1641.29 1163.91,1453.66 1180,1433.36 C1193.17,1416.74 1206.1371,1407.8627 1226.1871,1400.8427 " fill="none" id="Doctor-to-UC_013" style="stroke:#4A148C;stroke-width:1.0;"/><polygon fill="#4A148C" points="1231.85,1398.86,1222.0338,1398.0588,1227.1309,1400.5123,1224.6774,1405.6094,1231.85,1398.86" style="stroke:#4A148C;stroke-width:1.0;"/></g><!--link Doctor to UC_014--><g id="link_Doctor_UC_014"><path d="M172.54,2388.81 C319.03,2412.74 1027.57,2519.69 1172,2375.36 C1188.72,2358.65 1165.55,1543.07 1180,1524.36 C1192.32,1508.41 1204.0697,1499.8405 1222.9597,1492.7805 " fill="none" id="Doctor-to-UC_014" style="stroke:#4A148C;stroke-width:1.0;"/><polygon fill="#4A148C" points="1228.58,1490.68,1218.7492,1490.084,1223.8964,1492.4305,1221.5499,1497.5777,1228.58,1490.68" style="stroke:#4A148C;stroke-width:1.0;"/></g><!--link Doctor to UC_015--><g id="link_Doctor_UC_015"><path d="M158.18,2422.86 C180.19,2485.62 232.85,2609.01 323,2669.36 C401.81,2722.12 438.66,2704.36 533.5,2704.36 C533.5,2704.36 533.5,2704.36 1348,2704.36 C1571.15,2704.36 1710.1375,1862.7817 1735.4475,1696.4317 " fill="none" id="Doctor-to-UC_015" style="stroke:#4A148C;stroke-width:1.0;"/><polygon fill="#4A148C" points="1736.35,1690.5,1731.0417,1698.7959,1735.5979,1695.4431,1738.9507,1699.9993,1736.35,1690.5" style="stroke:#4A148C;stroke-width:1.0;"/></g><!--link Doctor to UC_016--><g id="link_Doctor_UC_016"><path d="M172.62,2415.18 C202.99,2447.77 256.03,2497.19 314,2517.36 C494.08,2580.01 1036.51,2651.51 1172,2517.36 C1187.97,2501.55 1166.31,1726.18 1180,1708.36 C1192.21,1692.47 1203.7969,1683.8961 1222.5169,1676.7261 " fill="none" id="Doctor-to-UC_016" style="stroke:#4A148C;stroke-width:1.0;"/><polygon fill="#4A148C" points="1228.12,1674.58,1218.2847,1674.0637,1223.4508,1676.3684,1221.1461,1681.5345,1228.12,1674.58" style="stroke:#4A148C;stroke-width:1.0;"/></g><!--link Doctor to UC_017--><g id="link_Doctor_UC_017"><path d="M164.45,2423.25 C190.14,2472.29 241.8,2554.29 314,2588.36 C486.43,2669.73 1024.01,2708.57 1172,2588.36 C1300,2484.39 1336.8529,1933.3416 1344.1929,1794.6416 " fill="none" id="Doctor-to-UC_017" style="stroke:#4A148C;stroke-width:1.0;"/><polygon fill="#4A148C" points="1344.51,1788.65,1340.04,1797.426,1344.2458,1793.643,1348.0288,1797.8488,1344.51,1788.65" style="stroke:#4A148C;stroke-width:1.0;"/></g><!--link Admin to UC_004--><g id="link_Admin_UC_004"><path d="M172.8,296.87 C212.87,347.78 286.71,451.13 315,553.36 C320.47,573.12 311.27,1274.55 323,1291.36 C352.03,1332.96 399.8269,1351.7126 445.7169,1361.3026 " fill="none" id="Admin-to-UC_004" style="stroke:#4A148C;stroke-width:1.0;"/><polygon fill="#4A148C" points="451.59,1362.53,443.5985,1356.7736,446.6957,1361.5072,441.9621,1364.6044,451.59,1362.53" style="stroke:#4A148C;stroke-width:1.0;"/></g><!--link Admin to UC_005--><g id="link_Admin_UC_005"><path d="M168.7,303.02 C207.68,371.85 285.96,521.41 315,659.36 C319.29,679.75 309.63,1393.38 323,1409.36 C351.65,1443.59 393.6962,1454.2479 436.6562,1456.1979 " fill="none" id="Admin-to-UC_005" style="stroke:#4A148C;stroke-width:1.0;"/><polygon fill="#4A148C" points="442.65,1456.47,433.8406,1452.066,437.6551,1456.2433,433.4779,1460.0578,442.65,1456.47" style="stroke:#4A148C;stroke-width:1.0;"/></g><!--link Admin to UC_006--><g id="link_Admin_UC_006"><path d="M172.8,259.89 C256.99,247.29 521.1,218.75 698,322.36 C759.08,358.13 765.79,385.85 790,452.36 C805.71,495.52 792.78,509.78 798.5,555.36 C841.37,896.66 920.5953,1301.8361 941.3353,1405.7161 " fill="none" id="Admin-to-UC_006" style="stroke:#4A148C;stroke-width:1.0;"/><polygon fill="#4A148C" points="942.51,1411.6,944.6705,1401.991,941.5311,1406.6968,936.8253,1403.5573,942.51,1411.6" style="stroke:#4A148C;stroke-width:1.0;"/></g><!--link Admin to UC_018--><g id="link_Admin_UC_018"><path d="M172.57,257.95 C202.06,249.86 249.99,233.72 284,207.36 C301.56,193.74 294.12,177.3 314,167.36 C503.22,72.75 606.12,62.74 790,167.36 C881.41,219.36 923.716,341.8701 939.166,398.7001 " fill="none" id="Admin-to-UC_018" style="stroke:#4A148C;stroke-width:1.0;"/><polygon fill="#4A148C" points="940.74,404.49,942.2388,394.7559,939.4283,399.6651,934.519,396.8546,940.74,404.49" style="stroke:#4A148C;stroke-width:1.0;"/></g><!--link Admin to UC_019--><g id="link_Admin_UC_019"><path d="M172.7,258.46 C282.91,234.81 700.73,152.2 790,238.36 C809.12,256.81 781.96,456.56 798.5,477.36 C812.34,494.76 827.0924,503.4616 848.5124,509.4616 " fill="none" id="Admin-to-UC_019" style="stroke:#4A148C;stroke-width:1.0;"/><polygon fill="#4A148C" points="854.29,511.08,846.7025,504.8007,849.4753,509.7314,844.5447,512.5042,854.29,511.08" style="stroke:#4A148C;stroke-width:1.0;"/></g><!--link Admin to UC_020--><g id="link_Admin_UC_020"><path d="M172.73,259.97 C203.52,253.57 253.73,238.84 284,207.36 C318.79,171.17 281.83,130.08 323,101.36 C459.69,6 532.8,79.31 698,101.36 C963.98,136.85 1225.0901,345.0371 1311.9801,420.1171 " fill="none" id="Admin-to-UC_020" style="stroke:#4A148C;stroke-width:1.0;"/><polygon fill="#4A148C" points="1316.52,424.04,1312.3253,415.1291,1312.7367,420.7709,1307.0948,421.1823,1316.52,424.04" style="stroke:#4A148C;stroke-width:1.0;"/></g><!--link Manager to UC_004--><g id="link_Manager_UC_004"><path d="M168.5,1112.9 C198.26,1160.83 254.98,1242.3 323,1291.36 C367.39,1323.38 420.403,1342.6795 464.573,1355.0695 " fill="none" id="Manager-to-UC_004" style="stroke:#4A148C;stroke-width:1.0;"/><polygon fill="#4A148C" points="470.35,1356.69,462.7648,1350.4079,465.5358,1355.3396,460.6041,1358.1106,470.35,1356.69" style="stroke:#4A148C;stroke-width:1.0;"/></g><!--link Manager to UC_005--><g id="link_Manager_UC_005"><path d="M154.68,1112.91 C172.77,1183.79 221.55,1334.41 323,1409.36 C355.69,1433.51 392.8496,1443.6416 431.5496,1448.1116 " fill="none" id="Manager-to-UC_005" style="stroke:#4A148C;stroke-width:1.0;"/><polygon fill="#4A148C" points="437.51,1448.8,429.0284,1443.7937,432.543,1448.2263,428.1105,1451.7409,437.51,1448.8" style="stroke:#4A148C;stroke-width:1.0;"/></g><!--link Manager to UC_006--><g id="link_Manager_UC_006"><path d="M175.02,1071.3 C207.47,1066.18 258.75,1052.68 284,1017.36 C365.43,903.42 220.95,484.27 323,388.36 C444.44,274.21 567.21,285.05 698,388.36 C867.33,522.11 933.636,1260.2188 945.166,1405.7088 " fill="none" id="Manager-to-UC_006" style="stroke:#4A148C;stroke-width:1.0;"/><polygon fill="#4A148C" points="945.64,1411.69,948.9165,1402.4021,945.245,1406.7056,940.9415,1403.0341,945.64,1411.69" style="stroke:#4A148C;stroke-width:1.0;"/></g><!--link Manager to UC_021--><g id="link_Manager_UC_021"><path d="M175.08,1100.46 C208.44,1129 265.91,1174.05 323,1199.36 C354.24,1213.21 384.0829,1221.8942 417.1129,1228.9642 " fill="none" id="Manager-to-UC_021" style="stroke:#4A148C;stroke-width:1.0;"/><polygon fill="#4A148C" points="422.98,1230.22,415.0166,1224.4248,418.0907,1229.1735,413.3421,1232.2476,422.98,1230.22" style="stroke:#4A148C;stroke-width:1.0;"/></g><!--link Manager to UC_022--><g id="link_Manager_UC_022"><path d="M175.06,1070.8 C207.04,1065.25 257.42,1051.36 284,1017.36 C356.5,924.6 241.44,840.25 323,755.36 C352.7,724.44 392.3354,713.6901 433.5254,710.7301 " fill="none" id="Manager-to-UC_022" style="stroke:#4A148C;stroke-width:1.0;"/><polygon fill="#4A148C" points="439.51,710.3,430.2464,706.9554,434.5229,710.6584,430.8199,714.9348,439.51,710.3" style="stroke:#4A148C;stroke-width:1.0;"/></g><!--link Manager to UC_023--><g id="link_Manager_UC_023"><path d="M175.16,1070.3 C206.73,1064.33 256.29,1050.11 284,1017.36 C334.08,958.18 267.9,901.89 323,847.36 C345.13,825.45 369.28,814.2631 399.69,807.3331 " fill="none" id="Manager-to-UC_023" style="stroke:#4A148C;stroke-width:1.0;"/><polygon fill="#4A148C" points="405.54,806,395.8762,804.0997,400.665,807.1109,397.6537,811.8997,405.54,806" style="stroke:#4A148C;stroke-width:1.0;"/></g><!--link Manager to UC_024--><g id="link_Manager_UC_024"><path d="M175.16,1068.65 C205.58,1061.38 253.07,1046.14 284,1017.36 C312.37,990.96 292.41,963.16 323,939.36 C347.88,920.01 373.3231,909.7126 404.1231,902.8626 " fill="none" id="Manager-to-UC_024" style="stroke:#4A148C;stroke-width:1.0;"/><polygon fill="#4A148C" points="409.98,901.56,400.3263,899.6093,405.0993,902.6455,402.063,907.4185,409.98,901.56" style="stroke:#4A148C;stroke-width:1.0;"/></g><!--link Manager to UC_025--><g id="link_Manager_UC_025"><path d="M175.08,1067.07 C210.11,1058.35 270.77,1043.41 323,1031.36 C361.27,1022.53 397.6959,1014.47 434.2659,1006.55 " fill="none" id="Manager-to-UC_025" style="stroke:#4A148C;stroke-width:1.0;"/><polygon fill="#4A148C" points="440.13,1005.28,430.4873,1003.2756,435.2433,1006.3383,432.1806,1011.0943,440.13,1005.28" style="stroke:#4A148C;stroke-width:1.0;"/></g><!--link Manager to UC_026--><g id="link_Manager_UC_026"><path d="M175.13,1074.36 C226.61,1074.36 330.23,1074.36 414.76,1074.36 " fill="none" id="Manager-to-UC_026" style="stroke:#4A148C;stroke-width:1.0;"/><polygon fill="#4A148C" points="420.76,1074.36,411.76,1070.36,415.76,1074.36,411.76,1078.36,420.76,1074.36" style="stroke:#4A148C;stroke-width:1.0;"/></g><!--link Manager to UC_027--><g id="link_Manager_UC_027"><path d="M175.05,1081.59 C210.06,1090.23 270.7,1104.94 323,1116.36 C365.42,1125.62 406.9315,1133.9985 446.0015,1141.6385 " fill="none" id="Manager-to-UC_027" style="stroke:#4A148C;stroke-width:1.0;"/><polygon fill="#4A148C" points="451.89,1142.79,443.8249,1137.1371,446.9829,1141.8304,442.2896,1144.9884,451.89,1142.79" style="stroke:#4A148C;stroke-width:1.0;"/></g><!--link UC_008 to UC_014--><g id="link_UC_008_UC_014"><path d="M1045.94,1695.17 C1065.57,1688.49 1085.06,1679.22 1101,1666.36 C1157.2,1621.01 1123.12,1568.86 1180,1524.36 C1197.17,1510.93 1212.3159,1503.2985 1233.3859,1496.6785 " fill="none" id="UC_008-to-UC_014" style="stroke:#4A148C;stroke-width:1.0;stroke-dasharray:7.0,7.0;"/><polygon fill="#4A148C" points="1239.11,1494.88,1229.3248,1493.7616,1234.3399,1496.3787,1231.7228,1501.3938,1239.11,1494.88" style="stroke:#4A148C;stroke-width:1.0;"/><text fill="#000000" font-family="sans-serif" font-size="13" lengthAdjust="spacing" textLength="61" x="1110" y="1529.4269">&#171;include&#187;</text></g><!--link UC_013 to UC_015--><g id="link_UC_013_UC_015"><path d="M1434.16,1408.04 C1454.37,1414.52 1475.3,1422.84 1493.5,1433.36 C1588.95,1488.49 1673.8929,1581.9941 1714.0929,1629.8941 " fill="none" id="UC_013-to-UC_015" style="stroke:#4A148C;stroke-width:1.0;stroke-dasharray:7.0,7.0;"/><polygon fill="#4A148C" points="1717.95,1634.49,1715.2283,1625.0247,1714.7357,1630.6601,1709.1004,1630.1675,1717.95,1634.49" style="stroke:#4A148C;stroke-width:1.0;"/><text fill="#000000" font-family="sans-serif" font-size="13" lengthAdjust="spacing" textLength="61" x="1521" y="1449.4269">&#171;include&#187;</text></g><!--link UC_016 to UC_015--><g id="link_UC_016_UC_015"><path d="M1478.7,1662.36 C1521.85,1662.36 1563.78,1662.36 1606.71,1662.36 " fill="none" id="UC_016-to-UC_015" style="stroke:#4A148C;stroke-width:1.0;stroke-dasharray:7.0,7.0;"/><polygon fill="#4A148C" points="1612.71,1662.36,1603.71,1658.36,1607.71,1662.36,1603.71,1666.36,1612.71,1662.36" style="stroke:#4A148C;stroke-width:1.0;"/><text fill="#000000" font-family="sans-serif" font-size="13" lengthAdjust="spacing" textLength="61" x="1521" y="1658.4269">&#171;include&#187;</text></g><!--link UC_017 to UC_015--><g id="link_UC_017_UC_015"><path d="M1443.01,1734.36 C1507.56,1718.74 1586.3985,1699.6619 1648.8885,1684.5319 " fill="none" id="UC_017-to-UC_015" style="stroke:#4A148C;stroke-width:1.0;stroke-dasharray:7.0,7.0;"/><polygon fill="#4A148C" points="1654.72,1683.12,1645.0315,1681.3502,1649.8604,1684.2966,1646.914,1689.1255,1654.72,1683.12" style="stroke:#4A148C;stroke-width:1.0;"/><text fill="#000000" font-family="sans-serif" font-size="13" lengthAdjust="spacing" textLength="61" x="1521" y="1697.4269">&#171;include&#187;</text></g><!--link UC_019 to UC_020--><g id="link_UC_019_UC_020"><path d="M1027.36,504.2 C1090.96,493.45 1175.2438,479.2092 1243.4538,467.6892 " fill="none" id="UC_019-to-UC_020" style="stroke:#4A148C;stroke-width:1.0;stroke-dasharray:7.0,7.0;"/><polygon fill="#4A148C" points="1249.37,466.69,1239.8295,464.2446,1244.4398,467.5227,1241.1618,472.1329,1249.37,466.69" style="stroke:#4A148C;stroke-width:1.0;"/><text fill="#000000" font-family="sans-serif" font-size="13" lengthAdjust="spacing" textLength="61" x="1110" y="476.4269">&#171;include&#187;</text></g><!--link UC_009 to UC_008--><g id="link_UC_009_UC_008"><path d="M651.11,1605.9 C668.11,1613.09 684.44,1622.37 698,1634.36 C721.54,1655.16 702.04,1680.67 728,1698.36 C761.13,1720.93 798.0102,1727.3961 837.0702,1727.0961 " fill="none" id="UC_009-to-UC_008" style="stroke:#4A148C;stroke-width:1.0;stroke-dasharray:7.0,7.0;"/><polygon fill="#4A148C" points="843.07,1727.05,834.0395,1723.1192,838.0701,1727.0884,834.101,1731.119,843.07,1727.05" style="stroke:#4A148C;stroke-width:1.0;"/><text fill="#000000" font-family="sans-serif" font-size="13" lengthAdjust="spacing" textLength="60" x="729" y="1694.4269">&#171;extend&#187;</text></g><!--link UC_011 to UC_007--><g id="link_UC_011_UC_007"><path d="M628.28,1752.6 C652.53,1746.38 677.57,1736.88 698,1722.36 C717.59,1708.43 708.39,1691.25 728,1677.36 C758.89,1655.48 791.7257,1643.4542 827.9857,1635.3142 " fill="none" id="UC_011-to-UC_007" style="stroke:#4A148C;stroke-width:1.0;stroke-dasharray:7.0,7.0;"/><polygon fill="#4A148C" points="833.84,1634,824.1824,1632.0685,828.9614,1635.0952,825.9347,1639.8742,833.84,1634" style="stroke:#4A148C;stroke-width:1.0;"/><text fill="#000000" font-family="sans-serif" font-size="13" lengthAdjust="spacing" textLength="60" x="729" y="1643.4269">&#171;extend&#187;</text></g><!--link UC_005 to UC_006--><g id="link_UC_005_UC_006"><path d="M630.8,1446.35 C693.07,1444.39 768.543,1442.01 833.263,1439.96 " fill="none" id="UC_005-to-UC_006" style="stroke:#4A148C;stroke-width:1.0;stroke-dasharray:7.0,7.0;"/><polygon fill="#4A148C" points="839.26,1439.77,830.1379,1436.0569,834.2625,1439.9283,830.3911,1444.0529,839.26,1439.77" style="stroke:#4A148C;stroke-width:1.0;"/><text fill="#000000" font-family="sans-serif" font-size="13" lengthAdjust="spacing" textLength="60" x="729" y="1438.4269">&#171;extend&#187;</text></g><!--link UC_023 to UC_019--><g id="link_UC_023_UC_019"><path d="M630.98,781.96 C653.81,775.13 677.49,766.12 698,754.36 C800.62,695.52 882.5761,600.0318 919.5061,553.3918 " fill="none" id="UC_023-to-UC_019" style="stroke:#4A148C;stroke-width:1.0;"/><polygon fill="none" points="930.68,539.28,914.8022,549.6672,924.2101,557.1165,930.68,539.28" style="stroke:#4A148C;stroke-width:1.0;"/></g><!--link UC_024 to UC_019--><g id="link_UC_024_UC_019"><path d="M634.71,874.96 C656.57,868.32 678.89,859.37 698,847.36 C824.48,767.85 902.6288,616.0479 930.2988,555.7879 " fill="none" id="UC_024-to-UC_019" style="stroke:#4A148C;stroke-width:1.0;"/><polygon fill="none" points="937.81,539.43,924.8462,553.2842,935.7515,558.2917,937.81,539.43" style="stroke:#4A148C;stroke-width:1.0;"/></g><!--link UC_008 to UC_013--><g id="link_UC_008_UC_013"><path d="M1055.99,1698.2 C1073.41,1691.24 1089.49,1681.09 1101,1666.36 C1111.82,1652.51 1102.09,1524.52 1109,1508.36 C1127.06,1466.16 1140.6,1456.91 1180,1433.36 C1200.76,1420.95 1207.6718,1416.7617 1231.1118,1410.1717 " fill="none" id="UC_008-to-UC_013" style="stroke:#4A148C;stroke-width:1.0;"/><polygon fill="none" points="1248.44,1405.3,1229.4879,1404.3956,1232.7357,1415.9478,1248.44,1405.3" style="stroke:#4A148C;stroke-width:1.0;"/></g><!--link UC_009 to UC_015--><g id="link_UC_009_UC_015"><path d="M693.05,1572.75 C838.34,1561.75 1040.39,1537.73 1101,1487.36 C1109,1480.71 1104.59,1474.78 1109,1465.36 C1135.6,1408.54 1125.61,1374.63 1180,1343.36 C1300.79,1273.9 1364.1,1291.7 1493.5,1343.36 C1625.88,1396.2 1697.3336,1549.8426 1723.7536,1617.5126 " fill="none" id="UC_009-to-UC_015" style="stroke:#4A148C;stroke-width:1.0;"/><polygon fill="none" points="1730.3,1634.28,1729.3427,1615.3305,1718.1645,1619.6948,1730.3,1634.28" style="stroke:#4A148C;stroke-width:1.0;"/></g><!--SRC=[fLZTRzis47_NNq5a3sk1kR3ao8wDBe3Zscs0jWdY97iS69csYSgYGD99iwt_-uvVaYoASOlu8P7k-tW_adVAoLeYoH2dcwr4Ayf99YahekXtj9JFEK62I4cBZK1hnb6MOqxbSoI-qQB47EyGpYJZHX8_4S5sfC4iSVODRuXXAykusEHDWRqW6HO4_HiX-5s0-8QpVR6QiHoy_ROOpDD5QdYChmYtzDDfV7esq_Gfv-pfaFoZ7Lx8_3nUf8kvRxuVfwFnnO6TWibmb8l5U7RgcrcaeqKy0ZEmbd_g7vhERgzkblOjCi6Tt1LuBxUaa3J3agpGdI3y1661Fkw9a4xg6aiACffXdnth0rF_DSSyEiPqjQE5fkidH_w22wYAKR3FAiQfvj9YIw36kCW8wg73oA1SN3W9jEOCAbXqY4GsGDJh_NTkqp2HDIawfYR1nj8aHHP2wEJJvJsQvRIWcOrvfnmiduKaknCeZLx_Ilfw_v23v3JBY10djdBgvn1tSZVhzVln15q0Vk3TAln57WILH2_DtUnla0Xe9XDT9tH3DbH8ZjMcgRMIWDR0Qdrc6zeG7sZn7wqSPcotOmMQ7gplWc2vv-I5d4vh7smlQoUd0VaKvCiL64VNdArftaW-3QWC9sYsXRqCAbY89m1zhJFipCK1Oadu8yrU2dyqGVUKF3cCemzOR1yORheO1LJF9XOQQ5gMZ1PIGKJKUcS1lN6bTmtWPGNEqHUoWWNFeRmPPDUmCUws4VTjsDERUtJBeKY7lkD-G2-sUb-Pf6jLOy1HGotkN4sxbuukPfnOwrR1NyiuWDHuyF9QneE0tccjzuXfZXze3XS6MkQigHt0OWnOD5ksAd-x0740a_6mTXmemJ2WEQhBRvq6YZ7gB8OvnexNuimXHCjtb280pxY6fzhNZNW2M4mgBEPvT_MIVcScxlmzcalYKEiq_6oImC6PE4Wk9IolW6Ej4LO0ZCd0gr0R5aa0ZqcDHxi7FCq05fFq6A2I01IJ6ehBR4jM-vmqb08eJ025y-ybu-h4anYzcItltzPQ3dfUCz6xMyxHR0f_RkQVfxUNLr-NdowlgnO3f7kz7kfgCT0Rq-s13y4oQi3-Leb7-kw5ftDt1xO8IPimS8vSVOo3GwThUtKXLkJFVxWsGg3INBrORtmJGDq_dBlBooEbFcdeaqO-wSmdZJqI7DWUANPPMYYzCicg8wfoR5DIZp9iK-00RrC67iMp77kMOz_ooALhJgnNPkkwlIhP5Y5j4uOj0foFBSAuHO1ZpKRipgLNnbmtf5NK7YdrIKEF1AUXHqfyqi0d-HuJtsFIuN7KE2cEdX6NHPRlLsf6oyqviAMbYCnkGU_UEHYX2Nh_dXhPy_F8eAtcfrtyuH7-w0X_NF6JVeiFWS-_IrAikkAkzI05fKUqg3CRr-oHp-wdDNjuo0Qd7qb1ECxfFzfdX_DaO6OOYr9JI8y4STMaWOkw9gLHfCTEoKh4rdOWKlCdt1bcakkX32l_QWI1scDOYLnD5Y0r0yQ36MqiiDK0HGkOudSwMf1H_S5B0nvmG3t3fUdYA16HMcmLr65eRXv5hM55cKDFMwPcVq8VOSzbc1CGktIR3aC8vYvfka5blXSJaElL7VdAjHWwJTneQxISQzYvkTxHhfeHDRkwlhLsqUZlx8OFP6RdQLJPBs560d6gOtgYSeioFPJ2cpNqIzarhLKP6fQzVTIAXRCfuI3BE2rD9f02J8mK8gR59f2H-HA0xEICi7er4wpEy-TZrsUhSYcCfLQCqCUplOfVnLf5Xw5ef50V5xIG3O8zGfNr1wYV09lxOe7GLKdCu0sBLvlWBFyrY4r1_rareZf4JbGJfjPFyNGlHanVfdCbc6TRpOBn75OVq2u0sHPtpKMeelyV]--></g></svg>